<svg width="1024" height="1024" viewBox="0 0 1024 1024" fill="none" xmlns="http://www.w3.org/2000/svg">
<rect width="1024" height="1024" rx="200" fill="#1A004B"/>
<rect width="1024" height="1024" rx="200" fill="url(#paint0_linear_374_13)" fill-opacity="0.4"/>
<g clip-path="url(#clip0_374_13)">
<path d="M511.418 552.868H250.909C228.327 552.868 210 534.522 210 511.917V283.74C210 266.705 220.636 251.471 236.509 245.41L497.018 147.62C509.618 142.87 523.691 144.672 534.655 152.37C545.618 160.069 552.327 172.518 552.327 185.95V511.917C552.327 534.522 534 552.868 511.418 552.868ZM291.818 470.967H470.509V245.083L291.818 312.242V471.13V470.967Z" fill="white"/>
<path d="M511.418 879C505.2 879 498.818 877.526 493.091 874.741C481.473 869.008 210 730.431 210 512.082C210 489.477 228.327 471.131 250.909 471.131H772.091C794.673 471.131 813 489.477 813 512.082C813 730.431 541.364 869.008 529.909 874.741C524.182 877.69 517.964 879 511.582 879H511.418ZM296.4 552.869C323.4 672.445 461.182 762.045 511.418 791.202C561.655 762.045 699.436 672.445 726.436 552.869H296.4Z" fill="white"/>
<path d="M772.091 552.869H511.582C489 552.869 470.673 534.523 470.673 511.918V185.951C470.673 172.519 477.218 159.906 488.345 152.371C499.309 144.672 513.382 143.034 525.982 147.621L786.491 245.411C802.527 251.472 813 266.705 813 283.741V511.918C813 534.523 794.673 552.869 772.091 552.869ZM552.327 470.967H731.018V312.079L552.327 244.92V470.967Z" fill="white"/>
</g>
<defs>
<linearGradient id="paint0_linear_374_13" x1="1024" y1="0" x2="0" y2="1024" gradientUnits="userSpaceOnUse">
<stop stop-opacity="0"/>
<stop offset="1" stop-color="#CF00A3"/>
</linearGradient>
<clipPath id="clip0_374_13">
<rect width="603" height="734" fill="white" transform="translate(210 145)"/>
</clipPath>
</defs>
</svg>
